<?xml version="1.0" standalone="no"?>
<!DOCTYPE svg PUBLIC "-//W3C//DTD SVG 20010904//EN"
 "http://www.w3.org/TR/2001/REC-SVG-20010904/DTD/svg10.dtd">
<svg version="1.0" xmlns="http://www.w3.org/2000/svg"
 width="2339.000000pt" height="1318.000000pt" viewBox="0 0 2339.000000 1318.000000"
 preserveAspectRatio="xMidYMid meet">

<g transform="translate(0.000000,1318.000000) scale(0.100000,-0.100000)"
fill="#FFF" stroke="none">
<path d="M2300 13173 c-367 -25 -658 -78 -921 -168 -141 -49 -384 -170 -497
-248 -379 -262 -627 -629 -741 -1097 -58 -240 -66 -322 -66 -680 1 -317 2
-328 29 -454 108 -503 359 -978 753 -1426 857 -975 2399 -1847 4473 -2528 489
-161 1040 -318 1455 -417 110 -26 217 -51 238 -56 l37 -10 0 -2297 c0 -1505
-4 -2328 -10 -2387 -29 -251 -108 -479 -223 -650 -49 -72 -179 -209 -251 -264
-191 -148 -452 -249 -726 -282 l-100 -12 0 -99 0 -98 2435 0 2435 0 0 98 0 99
-124 16 c-329 44 -575 164 -782 379 -222 231 -360 563 -395 948 -13 148 7
9732 21 10115 10 249 23 331 79 484 130 355 436 623 876 770 66 22 161 47 210
57 50 9 96 18 103 20 8 2 12 31 12 99 l0 95 -4137 -2 c-2276 -1 -4158 -3
-4183 -5z m3640 -943 c259 -16 435 -57 610 -145 258 -129 433 -357 491 -638
18 -89 19 -168 19 -2205 0 -2008 -1 -2113 -17 -2108 -1232 348 -2307 770
-3058 1201 -971 557 -1520 1162 -1667 1838 -32 149 -32 446 1 597 34 159 137
461 197 580 302 592 969 871 2139 893 247 5 1136 -4 1285 -13z"/>
<path d="M11182 13084 l3 -97 95 -19 c236 -48 514 -167 680 -292 101 -76 229
-207 289 -295 68 -99 130 -241 162 -369 24 -95 32 -152 40 -302 10 -198 28
-5491 29 -8382 0 -1914 2 -1854 -59 -2091 -72 -279 -193 -498 -373 -673 -212
-208 -468 -321 -810 -359 l-58 -6 0 -100 0 -100 2688 4 c1789 3 2766 8 2922
15 129 6 339 16 465 22 1649 76 2710 203 3295 392 1251 405 2075 1206 2494
2426 212 619 241 1187 90 1802 -49 199 -160 529 -240 709 -155 352 -400 736
-703 1101 -128 154 -504 530 -671 670 -260 219 -591 452 -880 620 -164 96
-470 251 -640 325 -74 32 -139 62 -143 65 -4 4 44 44 109 90 458 326 881 725
1161 1095 270 358 463 759 548 1139 38 174 47 266 48 511 1 328 -35 578 -119
833 -270 822 -963 1275 -2064 1352 -94 6 -1597 10 -4253 10 l-4108 0 3 -96z
m6268 -855 c601 -38 1053 -160 1371 -370 113 -75 302 -261 372 -367 77 -116
134 -239 197 -431 91 -276 104 -347 104 -586 1 -230 -11 -305 -76 -503 -298
-900 -1420 -1715 -3303 -2400 -368 -134 -963 -324 -1367 -438 -17 -5 -18 99
-18 2094 0 1801 2 2111 15 2183 45 260 177 467 385 609 151 103 323 162 580
201 165 25 1383 31 1740 8z m1415 -4736 c396 -244 858 -675 1169 -1091 411
-551 643 -1129 728 -1812 17 -137 17 -609 0 -755 -58 -497 -178 -917 -379
-1319 -389 -779 -1010 -1180 -2115 -1366 -515 -86 -1028 -119 -1928 -123 -601
-2 -681 2 -888 44 -336 68 -560 227 -696 496 l-26 52 0 2235 0 2235 38 9
c1456 346 2785 809 3842 1340 96 49 179 89 185 90 5 1 37 -15 70 -35z"/>
</g>
</svg>
