<?xml version="1.0" standalone="no"?>
<!DOCTYPE svg PUBLIC "-//W3C//DTD SVG 20010904//EN"
 "http://www.w3.org/TR/2001/REC-SVG-20010904/DTD/svg10.dtd">
<svg version="1.0" xmlns="http://www.w3.org/2000/svg"
 width="4633.000000pt" height="893.000000pt" viewBox="0 0 4633.000000 893.000000"
 preserveAspectRatio="xMidYMid meet">

<g transform="translate(0.000000,893.000000) scale(0.100000,-0.100000)"
fill="#FFF" stroke="none">
<path d="M2620 8659 c-513 -42 -977 -235 -1415 -586 -346 -278 -659 -681 -841
-1086 -228 -504 -328 -1011 -283 -1425 25 -233 104 -461 237 -686 30 -50 70
-122 89 -161 81 -159 122 -223 151 -228 16 -3 33 0 40 7 11 11 1 35 -61 137
-125 208 -162 296 -230 538 -32 115 -32 117 -32 346 0 239 8 324 51 547 81
418 275 868 524 1213 384 530 918 907 1490 1050 677 170 1385 25 1949 -398
188 -141 428 -396 554 -587 200 -305 310 -745 278 -1110 -39 -458 -222 -850
-546 -1174 -387 -388 -882 -551 -1379 -455 -192 36 -182 30 -269 187 -99 178
-279 551 -350 722 -74 181 -290 796 -366 1045 -112 367 -171 651 -191 913 -16
214 4 296 101 399 53 56 56 64 35 82 -20 17 -41 4 -100 -59 -261 -279 -206
-969 141 -1780 87 -204 371 -771 577 -1154 80 -149 144 -272 142 -274 -2 -2
-22 6 -45 18 -35 17 -48 34 -85 108 -66 132 -161 269 -236 343 -80 79 -199
144 -284 154 -62 8 -110 0 -100 -16 3 -6 -2 -16 -11 -23 -16 -11 -16 -15 -2
-42 28 -54 153 -208 228 -280 93 -89 209 -175 321 -238 103 -57 78 -5 243
-496 121 -361 180 -517 255 -677 l48 -102 -15 -73 c-37 -185 -139 -428 -246
-588 -233 -349 -601 -602 -985 -676 -116 -23 -318 -23 -436 0 -272 53 -484
164 -678 357 -250 248 -374 566 -339 874 16 142 42 232 106 360 144 289 418
488 725 526 117 14 259 -5 378 -51 227 -88 418 -300 483 -535 44 -162 10 -365
-86 -509 -92 -139 -257 -251 -408 -276 -193 -33 -426 78 -513 245 -32 60 -57
71 -75 31 -10 -21 -6 -32 29 -82 113 -165 275 -254 467 -257 108 -1 177 14
268 59 185 92 322 262 373 464 25 96 23 255 -5 353 -81 293 -330 535 -627 609
-124 31 -333 31 -449 -1 -315 -85 -609 -349 -733 -658 -97 -241 -103 -563 -15
-806 63 -177 174 -349 317 -493 193 -193 407 -314 675 -382 99 -25 121 -27
321 -27 192 0 225 3 310 24 602 150 1062 617 1215 1234 l31 129 29 -44 c54
-82 183 -235 252 -297 37 -35 104 -87 148 -116 70 -47 84 -61 109 -112 243
-499 856 -767 1376 -601 169 54 440 185 440 212 0 6 36 37 80 70 98 72 236
214 315 323 l59 82 41 -127 c57 -173 96 -261 160 -357 109 -164 206 -226 362
-233 118 -6 214 15 330 72 145 70 367 227 515 363 32 29 61 53 66 53 4 0 15
-13 25 -29 32 -54 164 -185 244 -243 150 -109 336 -188 513 -219 117 -21 327
-17 432 9 170 42 504 192 515 232 3 8 25 31 51 50 71 53 267 246 335 330 177
219 303 473 352 708 8 40 15 93 15 118 0 24 4 44 9 44 6 0 40 -7 78 -16 93
-22 308 -14 413 15 99 27 274 97 437 176 l132 63 -65 -75 c-316 -362 -497
-988 -389 -1350 22 -73 73 -143 126 -171 38 -20 54 -23 117 -19 61 3 87 11
155 46 146 73 269 174 570 464 173 168 221 225 190 228 -5 0 -16 2 -27 4 -13
3 -78 -57 -230 -209 -222 -223 -331 -311 -476 -383 -81 -40 -178 -55 -218 -34
-11 6 -30 36 -41 66 -26 68 -28 211 -6 336 38 216 140 516 261 767 135 281
221 405 317 457 20 11 37 24 37 29 0 5 7 17 16 27 9 10 14 25 11 34 -10 24
-52 18 -99 -14 -140 -94 -354 -195 -523 -246 -157 -48 -456 -70 -601 -44 -88
15 -214 59 -214 73 0 34 -74 158 -117 195 -46 41 -134 81 -179 81 -13 0 -36 7
-49 16 -29 19 -70 10 -60 -13 3 -9 -2 -24 -11 -34 -16 -18 -16 -19 9 -19 24 0
33 -12 82 -109 62 -125 138 -215 229 -271 l57 -35 -6 -70 c-31 -338 -207 -679
-506 -975 -270 -270 -474 -363 -789 -364 -320 -1 -615 120 -842 346 -83 82
-107 118 -73 104 8 -3 68 -8 133 -12 288 -16 551 54 776 205 75 51 78 52 97
35 17 -15 19 -15 19 -1 0 9 35 51 78 94 135 136 188 273 180 473 -4 98 -9 126
-35 192 -84 212 -297 397 -530 460 -109 29 -296 29 -407 -1 -223 -59 -431
-221 -558 -433 -100 -167 -143 -339 -135 -543 5 -156 30 -260 91 -391 l43 -90
-101 -92 c-130 -117 -197 -169 -325 -253 -485 -318 -785 -119 -851 565 -17
181 -14 211 26 306 137 326 206 773 184 1188 -5 90 -12 183 -15 207 -6 36 -4
44 12 49 10 3 106 12 213 21 356 29 345 28 345 50 0 19 -8 20 -294 25 l-295 5
-27 130 c-49 234 -113 451 -188 635 -17 41 -31 81 -31 87 0 21 -33 53 -55 53
-19 0 -20 -6 -21 -153 -1 -122 -8 -195 -37 -372 -19 -121 -38 -242 -41 -270
-4 -27 -9 -66 -12 -86 l-5 -37 -97 -7 c-126 -8 -365 -32 -470 -47 -72 -10 -83
-14 -80 -30 3 -17 18 -19 213 -23 116 -2 259 -7 318 -11 l108 -7 -6 -41 c-12
-90 -25 -392 -25 -591 0 -339 30 -681 83 -943 l23 -113 -39 -62 c-195 -307
-476 -525 -777 -599 -114 -29 -336 -30 -460 -4 -163 35 -308 95 -445 184 -69
46 -283 248 -272 258 3 3 25 -1 48 -8 30 -9 105 -13 234 -12 172 0 199 3 287
26 121 33 235 82 326 141 109 71 133 82 143 65 7 -10 9 -8 9 7 0 12 19 34 45
54 25 18 66 61 92 95 97 129 139 265 129 423 -10 169 -75 304 -211 438 -214
211 -512 283 -803 193 -309 -95 -565 -386 -637 -723 -23 -106 -23 -303 -1
-409 10 -43 15 -80 13 -82 -2 -3 -31 15 -63 40 -130 97 -248 249 -333 428
l-58 123 -7 139 c-10 232 -44 419 -108 600 l-31 88 23 18 24 18 -29 4 c-25 3
-38 18 -97 117 -38 62 -67 115 -65 117 2 2 19 -1 38 -6 156 -45 483 -50 670
-10 264 55 485 164 725 357 498 402 772 1030 724 1665 -39 522 -257 981 -655
1383 -507 511 -1223 774 -1945 714z m3725 -3654 c40 -163 65 -292 57 -300 -3
-3 -31 -5 -63 -5 -70 0 -65 -11 -74 180 -3 74 -12 194 -20 265 -8 72 -14 153
-14 180 1 49 1 49 40 -65 22 -63 55 -178 74 -255z m-3960 205 c68 -33 177
-139 239 -234 59 -89 121 -206 109 -206 -33 0 -217 146 -324 256 -81 84 -179
206 -179 224 0 12 101 -14 155 -40z m661 -750 c39 -69 71 -127 71 -130 -1 -3
18 -53 41 -112 50 -127 87 -277 102 -410 13 -121 13 -139 0 -118 -4 9 -54 135
-111 280 -85 221 -158 398 -255 617 l-14 33 47 -18 c46 -17 51 -23 119 -142z
m3378 122 c2 -4 10 -92 17 -194 23 -355 -24 -756 -126 -1063 l-33 -100 1 675
2 675 40 6 c62 9 93 10 99 1z m-1548 -562 c196 -50 371 -186 457 -356 76 -150
76 -345 0 -500 -49 -101 -162 -213 -268 -266 -134 -68 -421 -140 -637 -159
-129 -12 -318 -1 -359 21 -19 11 -69 125 -95 220 -14 50 -18 100 -18 215 1
133 4 160 28 240 52 174 120 289 238 401 183 176 421 243 654 184z m3649 5
c39 -8 113 -36 165 -61 79 -39 110 -62 181 -133 99 -99 149 -189 175 -311 47
-222 -60 -463 -257 -581 -210 -126 -723 -231 -984 -202 l-70 8 -37 75 c-85
170 -105 398 -54 594 113 434 487 693 881 611z m1361 -66 c40 -27 94 -92 94
-112 0 -13 -84 48 -142 104 -49 47 -51 50 -24 44 16 -3 49 -20 72 -36z"/>
<path d="M14795 8659 c-609 -56 -1164 -328 -1635 -799 -339 -338 -572 -717
-736 -1194 -109 -318 -154 -550 -161 -841 -6 -223 7 -354 53 -525 28 -102 148
-363 214 -466 22 -33 40 -64 40 -69 0 -4 34 -70 76 -145 72 -130 77 -137 105
-135 16 1 34 6 39 11 6 6 -15 51 -57 119 -132 220 -185 345 -247 592 -23 92
-26 120 -26 290 0 103 5 231 10 283 89 861 548 1670 1220 2150 595 426 1271
563 1955 396 406 -99 808 -333 1105 -642 292 -304 447 -587 528 -964 24 -115
26 -143 26 -360 0 -217 -2 -244 -26 -361 -64 -296 -188 -558 -377 -791 l-62
-77 -52 21 c-424 170 -841 270 -1322 319 -100 10 -445 13 -638 6 l-49 -2 -24
60 c-40 97 -226 622 -302 855 -154 467 -230 813 -248 1113 -11 187 15 275 106
367 43 43 49 54 40 70 -14 26 -20 25 -62 -7 -72 -55 -116 -124 -157 -248 -115
-350 -33 -887 235 -1534 36 -86 124 -275 195 -420 71 -145 129 -268 129 -272
0 -5 -9 -9 -19 -9 -59 0 -253 -77 -319 -127 -29 -22 -32 -29 -26 -56 22 -102
262 -364 445 -487 104 -69 196 -118 314 -166 l79 -32 63 -112 c212 -379 274
-757 187 -1140 -61 -271 -210 -562 -378 -738 l-40 -42 -48 47 c-51 50 -96 64
-119 36 -10 -11 -1 -26 50 -77 l62 -62 -48 -45 c-264 -244 -676 -400 -988
-374 -347 30 -621 158 -853 399 -223 232 -334 512 -319 801 14 264 121 501
302 674 237 225 526 312 808 243 157 -39 274 -108 394 -236 272 -286 283 -676
25 -936 -84 -84 -140 -121 -238 -156 -130 -48 -266 -39 -395 26 -77 39 -171
127 -211 198 -35 60 -60 68 -77 22 -5 -16 -6 -30 -1 -30 4 0 19 -19 33 -43 61
-104 196 -203 332 -243 80 -23 220 -23 300 0 216 63 392 238 467 461 20 60 23
90 23 215 0 137 -2 150 -31 232 -97 271 -327 483 -609 559 -114 32 -335 32
-450 1 -99 -27 -244 -96 -339 -162 -87 -60 -227 -201 -286 -289 -239 -356
-252 -840 -32 -1217 213 -365 578 -618 992 -690 117 -20 406 -15 515 10 257
58 509 188 718 371 l88 76 307 -298 c169 -164 335 -320 370 -347 150 -114 345
-209 512 -248 125 -29 459 -36 638 -14 348 45 636 161 898 364 193 149 337
323 444 537 133 266 190 533 176 830 l-6 139 61 -59 c75 -74 140 -164 176
-241 53 -118 170 -243 312 -332 67 -43 76 -53 111 -122 179 -354 531 -588 947
-632 199 -21 380 14 617 118 114 50 246 123 246 137 0 5 39 50 86 100 200 212
347 508 415 832 18 87 23 143 24 265 0 85 -3 175 -7 200 -13 80 12 6 39 -120
24 -108 26 -135 29 -460 5 -407 18 -703 40 -855 9 -60 20 -157 24 -215 4 -58
8 -106 9 -107 1 -2 11 -3 24 -3 21 0 24 6 34 87 6 49 24 144 39 213 24 113 27
146 28 335 1 116 -3 251 -7 300 l-8 90 95 158 c52 87 121 195 153 240 76 107
330 362 406 406 77 45 179 81 230 81 96 0 219 -94 290 -220 158 -283 202 -850
97 -1238 -27 -99 -48 -137 -116 -207 -32 -33 -58 -63 -56 -67 1 -4 -7 -10 -18
-13 -21 -7 -24 -14 -15 -37 6 -15 59 -13 80 2 6 4 60 26 120 50 61 24 169 74
240 110 810 412 1368 1150 1807 2390 l59 165 -6 -90 c-3 -49 -10 -157 -15
-240 -22 -332 -30 -652 -40 -1560 -6 -522 -14 -1064 -19 -1203 l-9 -252 -38
-49 c-22 -27 -91 -113 -156 -192 -209 -258 -295 -407 -318 -553 -26 -165 48
-321 222 -466 87 -71 116 -83 136 -52 8 12 21 22 29 22 10 0 13 6 9 16 -3 8 7
41 23 72 63 126 116 306 177 605 32 156 84 493 100 647 6 60 12 72 79 165 194
268 329 537 390 775 15 58 29 111 31 119 3 7 29 -35 59 -95 68 -135 130 -218
241 -323 148 -140 331 -212 539 -213 123 0 214 20 321 72 138 67 258 174 341
305 28 45 43 56 43 33 0 -22 59 -139 90 -179 35 -43 119 -89 165 -89 150 0
341 170 606 540 99 138 211 298 224 319 56 92 116 202 165 302 l60 122 0 -254
c0 -321 16 -667 36 -812 9 -61 19 -159 22 -217 7 -112 13 -130 41 -130 15 0
20 14 29 83 6 45 23 136 37 202 36 163 45 462 21 671 l-16 141 50 121 c83 204
146 317 253 455 81 105 181 177 247 177 104 0 222 -164 288 -400 63 -223 90
-445 91 -735 2 -293 -18 -420 -82 -516 -46 -70 -54 -101 -30 -121 13 -11 20
-7 49 27 49 58 151 234 190 326 39 93 68 202 83 312 12 87 13 311 2 400 -7 53
-4 66 29 145 53 126 81 177 159 293 109 163 231 268 314 269 40 0 76 -21 129
-78 150 -160 251 -591 251 -1062 -1 -294 -23 -425 -91 -521 -40 -57 -46 -85
-23 -113 11 -14 15 -12 35 12 76 92 182 279 225 398 54 149 66 229 66 455 l0
206 78 37 c93 44 205 145 271 245 113 171 184 352 336 857 152 505 230 708
321 840 37 55 98 117 129 134 26 14 27 33 -15 -355 -35 -321 -44 -516 -55
-1177 -5 -326 -13 -651 -16 -723 l-7 -129 -97 -126 c-114 -150 -214 -316 -231
-383 -20 -81 -7 -173 34 -253 73 -137 110 -154 176 -76 109 126 230 455 290
787 17 98 21 107 68 167 73 91 149 211 193 303 47 98 134 357 190 565 58 216
48 202 102 152 75 -70 132 -193 170 -372 18 -82 21 -141 25 -440 5 -421 18
-706 39 -854 9 -61 18 -147 20 -191 8 -132 11 -145 39 -145 21 0 25 5 25 33 1
34 15 112 49 272 28 128 39 427 22 598 l-12 118 72 122 c154 261 251 389 410
542 146 140 272 213 387 223 108 9 237 -87 314 -234 133 -256 183 -717 119
-1084 -31 -179 -52 -235 -116 -312 -30 -37 -63 -72 -74 -77 -23 -13 -17 -57 9
-71 15 -8 33 6 108 85 170 180 281 349 338 517 113 334 60 756 -130 1023 -59
82 -170 184 -244 223 -110 59 -243 76 -355 47 -226 -59 -435 -259 -716 -686
-64 -97 -121 -184 -126 -194 -8 -14 -22 31 -64 201 -110 451 -166 600 -261
695 -51 51 -119 81 -147 63 -10 -6 -25 -51 -39 -114 -48 -211 -153 -492 -241
-640 -66 -112 -113 -183 -119 -178 -2 2 1 44 6 93 44 419 27 1095 -41 1585
-11 80 -22 219 -25 310 -2 90 -8 168 -13 173 -4 4 -42 -15 -84 -43 -124 -83
-213 -195 -297 -374 -60 -127 -89 -213 -190 -561 -145 -501 -232 -736 -335
-900 -77 -124 -183 -218 -273 -244 l-30 -9 -12 66 c-56 303 -223 584 -397 668
-46 22 -72 28 -128 28 -61 0 -78 -4 -133 -33 -120 -65 -223 -200 -358 -467
l-81 -161 -27 95 c-48 172 -147 354 -247 454 -25 25 -75 61 -110 79 -54 28
-75 33 -134 33 -59 0 -81 -5 -129 -29 -75 -38 -176 -145 -250 -265 -57 -92
-170 -313 -215 -420 l-23 -55 -47 185 c-46 179 -47 186 -34 240 18 79 17 226
-4 286 -36 107 -175 198 -303 199 -50 0 -55 -2 -58 -23 -3 -17 5 -26 30 -40
57 -29 134 -115 167 -186 36 -74 80 -236 82 -300 1 -27 -11 -73 -36 -134 -63
-157 -189 -392 -210 -392 -5 0 -48 -59 -93 -130 -117 -182 -218 -322 -296
-410 -140 -158 -273 -250 -363 -250 -36 0 -46 5 -67 33 -52 68 -86 218 -86
375 0 260 73 669 172 965 59 177 88 235 149 296 54 55 68 87 50 119 -8 15 -26
0 -123 -98 -114 -115 -210 -246 -257 -347 -14 -29 -27 -53 -30 -53 -3 0 -19
33 -35 73 -92 231 -253 413 -451 511 -122 61 -197 79 -325 80 -313 1 -600
-203 -774 -552 -95 -190 -131 -372 -123 -626 6 -203 -4 -297 -48 -472 -41
-160 -87 -280 -172 -446 -55 -107 -192 -334 -193 -318 0 3 7 88 15 190 29 384
38 716 32 1305 -6 582 -17 837 -58 1325 -20 241 -29 450 -29 663 0 107 0 108
-22 105 -21 -3 -23 -9 -28 -93 -4 -59 -15 -119 -34 -175 -15 -47 -55 -168 -88
-270 -432 -1315 -1031 -2124 -1873 -2529 -126 -61 -155 -73 -155 -66 0 2 21
28 47 57 142 160 243 338 290 513 25 93 27 114 27 305 0 191 -2 212 -26 303
-55 201 -123 324 -252 452 -245 243 -538 231 -827 -34 -122 -111 -305 -349
-455 -591 -52 -84 -71 -106 -76 -93 -3 10 -34 133 -69 273 -96 392 -151 532
-244 626 -44 43 -110 72 -139 61 -23 -9 -20 -19 22 -63 94 -98 133 -219 133
-414 0 -440 -177 -894 -461 -1178 -79 -79 -123 -107 -232 -151 -120 -47 -216
-64 -373 -65 -335 -1 -640 130 -868 374 -43 45 -77 84 -75 85 2 1 39 -4 83
-12 124 -22 362 -12 487 20 120 32 234 81 326 140 109 71 133 82 143 65 7 -10
9 -8 9 7 1 11 20 35 43 53 192 154 273 436 193 674 -31 93 -62 147 -130 230
-147 178 -363 279 -601 281 -246 3 -453 -88 -635 -279 -127 -134 -200 -265
-247 -443 -21 -80 -26 -119 -26 -236 0 -95 5 -164 17 -214 9 -41 15 -75 13
-77 -9 -9 -111 73 -177 143 -51 54 -95 114 -138 190 -81 143 -138 222 -224
305 -67 64 -70 68 -89 150 -48 202 -139 414 -255 591 -271 414 -583 684 -1075
928 l-126 62 59 71 c214 254 358 567 424 919 21 111 30 428 15 553 -59 505
-284 942 -682 1329 -385 374 -870 608 -1399 675 -121 15 -407 20 -525 9z m705
-3274 c288 -32 609 -98 880 -181 130 -40 367 -131 375 -144 8 -12 -122 -129
-225 -201 -130 -92 -267 -162 -405 -208 -172 -57 -280 -75 -465 -75 -159 0
-219 8 -374 46 -81 21 -90 25 -111 58 -91 144 -363 695 -350 708 24 24 444 22
675 -3z m-672 -177 c50 -95 133 -252 185 -348 52 -96 94 -177 91 -179 -2 -2
-50 19 -106 47 -213 104 -419 282 -555 480 l-38 54 23 18 c36 30 233 96 294
99 11 1 43 -50 106 -171z m2207 -281 c360 -195 649 -446 836 -726 90 -134 122
-197 169 -340 104 -311 103 -631 -1 -951 -74 -225 -184 -406 -344 -565 -265
-262 -560 -396 -1060 -480 -140 -24 -178 -26 -300 -22 -215 9 -409 59 -688
180 -155 67 -243 129 -408 286 l-123 117 49 59 c206 252 336 576 365 908 22
253 -28 615 -115 828 -14 34 -24 63 -22 64 1 1 13 9 27 18 l24 17 -29 0 c-27
1 -36 10 -98 116 -38 64 -67 117 -65 119 1 1 44 -6 93 -17 127 -29 459 -31
590 -5 283 58 531 182 787 396 54 45 100 86 103 91 7 11 70 -17 210 -93z
m9590 -993 c252 -67 463 -294 559 -601 23 -76 24 -85 11 -122 -56 -160 -95
-416 -95 -627 0 -134 -2 -149 -22 -177 -200 -290 -478 -427 -733 -362 -211 53
-394 220 -505 459 -176 378 -138 861 91 1166 103 136 259 241 409 275 77 17
197 13 285 -11z m-6571 -44 c300 -76 516 -328 516 -602 0 -90 -15 -158 -56
-247 -27 -59 -51 -91 -118 -157 -93 -92 -149 -124 -296 -172 -269 -88 -539
-126 -730 -103 -126 15 -127 16 -152 64 -114 225 -116 530 -4 773 64 137 175
269 299 353 146 100 364 136 541 91z m8356 -89 c51 -51 80 -129 80 -214 0 -58
-13 -60 -29 -4 -18 60 -87 205 -116 243 -24 32 -24 32 -3 26 13 -3 43 -26 68
-51z m3465 -1435 c-30 -211 -72 -347 -137 -439 l-20 -28 -25 36 c-78 114 -71
243 20 373 65 93 171 211 176 194 1 -8 -5 -69 -14 -136z m-6967 -1313 c-12
-211 -46 -495 -74 -623 -27 -118 -75 -264 -98 -295 -13 -18 -15 -17 -44 3 -44
32 -130 129 -153 173 -86 170 -49 335 132 581 78 106 232 298 239 298 3 0 2
-62 -2 -137z"/>
<path d="M42210 8223 c-372 -40 -803 -196 -1168 -422 -797 -495 -1291 -1342
-1408 -2414 -23 -206 -23 -608 0 -817 71 -656 261 -1198 601 -1710 143 -216
245 -341 419 -516 235 -234 452 -390 746 -538 251 -125 456 -191 725 -233 154
-24 524 -24 688 0 153 23 372 78 512 129 144 52 418 184 410 198 -4 6 1 7 11
3 13 -5 15 -3 9 7 -5 8 -4 11 3 6 29 -18 341 195 589 401 l112 93 78 -80 c101
-106 176 -162 298 -221 450 -219 981 -82 1256 323 133 195 229 538 229 817 0
223 -42 400 -140 590 -122 236 -317 416 -552 510 -130 53 -198 65 -358 65
-128 -1 -156 -4 -235 -27 -261 -78 -471 -237 -632 -479 -184 -277 -251 -621
-187 -960 27 -142 92 -303 179 -445 l26 -42 -83 -66 c-286 -228 -682 -448
-987 -549 -278 -91 -489 -126 -770 -126 -618 0 -1109 220 -1587 712 -360 372
-626 870 -767 1438 -151 607 -165 1385 -36 2015 199 972 709 1659 1455 1958
625 251 1320 196 1854 -148 98 -63 245 -190 318 -274 169 -199 376 -561 458
-806 54 -163 74 -273 81 -443 6 -155 15 -191 46 -179 22 8 31 145 18 297 -31
366 -134 685 -319 984 -326 528 -831 864 -1411 941 -96 13 -389 18 -481 8z
m3325 -3918 c134 -39 254 -107 348 -195 250 -234 370 -537 354 -895 -10 -222
-69 -393 -194 -560 -350 -468 -913 -535 -1293 -155 -362 362 -434 971 -168
1417 43 73 176 213 252 268 98 69 214 119 337 145 82 17 264 5 364 -25z
m-1835 -2419 c-29 -16 -293 -121 -330 -131 -57 -17 -5 8 140 65 85 33 164 65
175 70 31 14 43 11 15 -4z"/>
<path d="M25008 6002 c-59 -39 -107 -130 -108 -204 0 -39 4 -50 27 -68 56 -44
144 1 196 100 33 64 38 147 9 173 -24 22 -90 22 -124 -1z"/>
<path d="M31975 5949 c-52 -46 -85 -109 -92 -173 -5 -49 -3 -57 20 -80 28 -28
50 -32 94 -15 97 36 174 217 119 278 -31 34 -96 29 -141 -10z"/>
<path d="M36775 5576 c-166 -38 -333 -156 -431 -304 -75 -112 -131 -279 -155
-457 -16 -120 -6 -361 20 -485 74 -351 291 -757 560 -1052 28 -31 51 -58 51
-60 0 -3 -44 -8 -97 -11 -343 -22 -606 -214 -717 -524 -30 -85 -31 -94 -31
-253 0 -142 3 -176 23 -245 91 -320 347 -576 667 -667 70 -20 101 -23 255 -22
157 0 185 3 274 27 118 32 312 124 414 197 165 117 299 273 383 449 l43 88
130 -63 c165 -79 314 -129 444 -151 90 -14 102 -19 102 -37 0 -18 3 -17 31 10
30 28 31 31 24 94 -10 101 -23 147 -75 255 -60 124 -151 240 -261 332 -85 72
-220 163 -296 202 -31 15 -44 29 -48 49 -3 15 -18 78 -34 140 -16 61 -25 112
-22 112 4 0 32 -8 62 -17 42 -14 88 -18 209 -18 142 0 161 3 227 27 143 51
308 185 400 324 36 54 39 88 6 82 -9 -2 -35 -30 -58 -63 -83 -123 -190 -203
-315 -239 -89 -25 -210 -36 -411 -36 -205 -1 -207 -2 -186 -60 17 -47 65 -240
60 -240 -3 0 -55 20 -116 45 -242 96 -520 159 -852 193 l-70 7 -85 117 c-456
627 -617 1231 -460 1722 38 116 87 198 164 274 110 109 242 170 417 192 88 11
208 -2 314 -34 57 -18 91 -12 98 15 7 25 -10 32 -153 66 -131 31 -406 41 -505
19z m233 -2548 c295 -286 642 -555 908 -704 35 -20 64 -40 64 -45 0 -5 -16
-42 -36 -82 -129 -257 -350 -449 -626 -546 -376 -131 -744 -52 -996 213 -128
135 -209 310 -232 504 -33 269 90 534 319 684 108 71 226 101 414 107 l49 1
136 -132z m211 96 c255 -37 553 -120 742 -207 92 -42 91 -39 90 -236 0 -130
-27 -311 -48 -332 -11 -11 -212 113 -337 208 -199 151 -401 333 -550 497 l-78
86 37 0 c21 0 85 -7 144 -16z m1040 -373 c100 -66 222 -179 287 -264 79 -104
154 -282 154 -365 l0 -29 -61 9 c-134 18 -297 72 -471 155 -92 44 -117 60
-113 72 26 68 37 155 42 329 l5 192 37 -21 c20 -12 74 -47 120 -78z"/>
<path d="M41937 1853 c-9 -9 12 -33 30 -33 11 0 11 4 3 20 -11 21 -22 25 -33
13z"/>
</g>
</svg>
